<?xml version="1.0" encoding="iso-8859-1"?>
<!-- Uploaded to: SVG Repo, www.svgrepo.com, Generator: SVG Repo Mixer Tools -->
<svg fill="#000000" height="800px" width="800px" version="1.1" id="Capa_1" xmlns="http://www.w3.org/2000/svg" xmlns:xlink="http://www.w3.org/1999/xlink" 
	 viewBox="0 0 490 490" xml:space="preserve">
<g>
	<ellipse cx="245.639" cy="154.693" rx="50.324" ry="51.162"/>
	<path d="M158.728,306.884h173.823c0-48.799-38.912-88.359-86.912-88.359S158.728,258.085,158.728,306.884z"/>
	<path d="M49.729,99.439c4.652,0,9.151-0.652,13.424-1.846l52.215,60.854l23.238-19.949L88.831,80.488
		c6.652-8.413,10.635-19.007,10.635-30.516c0-27.291-22.311-49.482-49.736-49.482C22.311,0.49,0,22.681,0,49.972
		C0,77.248,22.311,99.439,49.729,99.439z M49.729,31.115c10.535,0,19.111,8.464,19.111,18.857c0,10.393-8.576,18.842-19.111,18.842
		s-19.104-8.449-19.104-18.842C30.625,39.579,39.194,31.115,49.729,31.115z"/>
	<path d="M49.729,489.51c27.425,0,49.736-22.191,49.736-49.482c0-11.515-3.983-22.114-10.636-30.529l49.778-58.012l-23.238-19.948
		l-52.216,60.854c-4.274-1.194-8.773-1.846-13.424-1.846C22.311,390.546,0,412.737,0,440.028S22.311,489.51,49.729,489.51z
		 M49.729,421.171c10.535,0,19.111,8.464,19.111,18.857c0,10.393-8.576,18.857-19.111,18.857s-19.104-8.464-19.104-18.857
		C30.625,429.635,39.194,421.171,49.729,421.171z"/>
	<path d="M374.631,158.447l52.22-60.852c4.27,1.192,8.765,1.844,13.412,1.844c27.425,0,49.737-22.191,49.737-49.467
		c0-27.291-22.311-49.482-49.737-49.482c-27.41,0-49.721,22.191-49.721,49.482c0,11.508,3.983,22.103,10.634,30.516l-49.783,58.011
		L374.631,158.447z M440.263,31.115c10.543,0,19.111,8.464,19.111,18.857c0,10.393-8.569,18.842-19.111,18.842
		c-10.527,0-19.096-8.449-19.096-18.842C421.167,39.579,429.736,31.115,440.263,31.115z"/>
	<path d="M401.177,409.499c-6.652,8.416-10.635,19.014-10.635,30.529c0,27.291,22.311,49.482,49.721,49.482
		c27.425,0,49.737-22.191,49.737-49.482s-22.311-49.482-49.737-49.482c-4.647,0-9.142,0.652-13.412,1.844l-52.221-60.852
		l-23.238,19.948L401.177,409.499z M459.375,440.028c0,10.393-8.569,18.857-19.111,18.857c-10.527,0-19.096-8.464-19.096-18.857
		c0-10.393,8.569-18.857,19.096-18.857C450.806,421.171,459.375,429.635,459.375,440.028z"/>
</g>
</svg>